<?xml version="1.0" ?><svg viewBox="0 0 24 24" xmlns="http://www.w3.org/2000/svg"><defs><style>.a{fill:#78eb7b;}.b{fill:#191919;}.c{fill:#c9f7ca;}.d{fill:none;stroke:#191919;stroke-linecap:round;stroke-linejoin:round;}</style></defs><title/><path class="a" d="M15.619,8.572a3.026,3.026,0,0,0,.191,3.009l.038.056a30.37,30.37,0,0,1,2.007,2.636,1.528,1.528,0,0,1-1.017,1.873,1.463,1.463,0,0,1-1.809-1.054c-.246-.91.319-.994-.566-2.016-.462-.534-1.406.474-1.713,1.511a8.4,8.4,0,0,0-.454,2.076,1.753,1.753,0,0,1-.589,2.483,1.626,1.626,0,0,1-2.237-.709,1.741,1.741,0,0,1,.794-2.371,45.573,45.573,0,0,0,1.522-5.094C10.5,13.714,9.725,12.384,8.7,14.423a1.511,1.511,0,0,1-.375.475,1.423,1.423,0,0,1-2.05-.222,1.547,1.547,0,0,1,.214-2.123,1.435,1.435,0,0,1,.608-.3c.947-.214,3.319-2.186,4.115-2.813-2.306,1.29-2.969.836-2.969.836a1.389,1.389,0,0,1-.263.262,1.275,1.275,0,0,1-1.819-.307,1.383,1.383,0,0,1,.295-1.885,1.268,1.268,0,0,1,.8-.254c1,.033,4.254.873,5.751-2.041,0,0,.481-.877,1.075-1.957s.551-2.265-.1-2.643L12.809.76a2.356,2.356,0,0,0-2.154,0L2.577,5.477A2.439,2.439,0,0,0,1.5,7.386V16.61a2.441,2.441,0,0,0,1.076,1.909l8.083,4.72a2.354,2.354,0,0,0,2.153,0l8.52-4.729A2.55,2.55,0,0,0,22.5,16.6V7.375a2.55,2.55,0,0,0-1.168-1.913s-.6-.349-1.332-.779C18.381,3.734,16.335,7.281,15.619,8.572Z"/><path class="b" d="M11.611,11.32l.114-.114c.031-.119.054-.206.061-.234C11.726,11.1,11.669,11.209,11.611,11.32Z"/><path class="c" d="M6.276,14.676a1.547,1.547,0,0,1,.214-2.123,1.435,1.435,0,0,1,.608-.3c.947-.214,3.319-2.186,4.115-2.813-2.306,1.29-2.969.836-2.969.836a1.355,1.355,0,0,1-.263.261,1.274,1.274,0,0,1-1.819-.306,1.383,1.383,0,0,1,.295-1.885,1.268,1.268,0,0,1,.8-.254c1,.033,4.254.873,5.751-2.041,0,0,.481-.877,1.075-1.957s.551-2.265-.1-2.643L12.809.76a2.356,2.356,0,0,0-2.154,0L2.577,5.477A2.439,2.439,0,0,0,1.5,7.386V16.61a2.441,2.441,0,0,0,1.076,1.909l1.159.677L7.741,15.19A1.428,1.428,0,0,1,6.276,14.676Z"/><path class="b" d="M8.967,13.964l.779-.78A2.383,2.383,0,0,0,8.967,13.964Z"/><path class="d" d="M15.619,8.572a3.026,3.026,0,0,0,.191,3.009l.038.056a30.37,30.37,0,0,1,2.007,2.636,1.528,1.528,0,0,1-1.017,1.873,1.463,1.463,0,0,1-1.809-1.054c-.246-.91.319-.994-.566-2.016-.462-.534-1.406.474-1.713,1.511a8.4,8.4,0,0,0-.454,2.076,1.753,1.753,0,0,1-.589,2.483,1.626,1.626,0,0,1-2.237-.709,1.741,1.741,0,0,1,.794-2.371,45.573,45.573,0,0,0,1.522-5.094C10.5,13.714,9.725,12.384,8.7,14.423a1.511,1.511,0,0,1-.375.475,1.423,1.423,0,0,1-2.05-.222,1.547,1.547,0,0,1,.214-2.123,1.435,1.435,0,0,1,.608-.3c.947-.214,3.319-2.186,4.115-2.813-2.306,1.29-2.969.836-2.969.836a1.389,1.389,0,0,1-.263.262,1.275,1.275,0,0,1-1.819-.307,1.383,1.383,0,0,1,.295-1.885,1.268,1.268,0,0,1,.8-.254c1,.033,4.254.873,5.751-2.041,0,0,.481-.877,1.075-1.957s.551-2.265-.1-2.643L12.809.76a2.356,2.356,0,0,0-2.154,0L2.577,5.477A2.439,2.439,0,0,0,1.5,7.386V16.61a2.441,2.441,0,0,0,1.076,1.909l8.083,4.72a2.354,2.354,0,0,0,2.153,0l8.52-4.729A2.55,2.55,0,0,0,22.5,16.6V7.375a2.55,2.55,0,0,0-1.168-1.913s-.6-.349-1.332-.779C18.381,3.734,16.335,7.281,15.619,8.572Z"/></svg>